# xmcd
# 
# Track frame offsets:
#     150
#     15961
#     34424
#     55020
#     68357
#     93435
#     113296
#     129824
#     150003
#     167731
#     189045
#     209019
#     247056
#     263717
# 
# Disc length: 3755
# 
# Revision: 1
# Processed by: cddbd v1.5.2PL0 Copyright (c) Steve Scherf et al.
# Submitted via: fre:ac v1.0.31
# 
DISCID=9e0ea90e
DTITLE=Modest Mouse - We Were Dead Before The Ship Even Sank
DYEAR=2007
DGENRE=Rock/Pop
TTITLE0=March Into The Sea
TTITLE1=Dashboard
TTITLE2=Fire It Up
TTITLE3=Florida
TTITLE4=Parting Of The Sensory
TTITLE5=Missed The Boat
TTITLE6=We've Got Everything
TTITLE7=Fly Trapped In A Jar
TTITLE8=Education
TTITLE9=Little Motel
TTITLE10=Steam Engenius
TTITLE11=Spitting Venom
TTITLE12=People As Places As People
TTITLE13=Invisible
EXTD=
EXTT0=
EXTT1=
EXTT2=
EXTT3=
EXTT4=
EXTT5=
EXTT6=
EXTT7=
EXTT8=
EXTT9=
EXTT10=
EXTT11=
EXTT12=
EXTT13=
PLAYORDER=
